<svg xmlns="http://www.w3.org/2000/svg" width="16" height="16"><style type="text/css">.icon-canvas-transparent{opacity:0;fill:#F6F6F6;} .icon-vs-out{fill:#F6F6F6;} .icon-vs-bg{fill:#424242;} .icon-vs-fg{fill:#F0EFF1;}</style><path class="icon-canvas-transparent" d="M16 16h-16v-16h16v16z" id="canvas"/><path class="icon-vs-out" d="M14 1.586v12.828l-1.586 1.586h-7.828l-1.586-1.586v-12.828l1.586-1.586h7.828l1.586 1.586z" id="outline"/><path class="icon-vs-bg" d="M6 6h1v1h-1v-1zm2 5h1v-1h-1v1zm0 2h1v-1h-1v1zm-2 0h1v-1h-1v1zm0-2h1v-1h-1v1zm0-2h1v-1h-1v1zm4 4h1v-3h-1v3zm-4-8h5v-2h-5v2zm2 4h1v-1h-1v1zm2-2h1v-1h-1v1zm3-5v12l-1 1h-7l-1-1v-12l1-1h7l1 1zm-1 .414l-.414-.414h-6.172l-.414.414v11.172l.414.414h6.172l.414-.414v-11.172zm-2 6.586h1v-1h-1v1zm-2-2h1v-1h-1v1z" id="iconBg"/><path class="icon-vs-fg" d="M11.586 2h-6.172l-.414.414v11.172l.414.414h6.172l.414-.414v-11.172l-.414-.414zm-4.586 11h-1v-1h1v1zm0-2h-1v-1h1v1zm0-2h-1v-1h1v1zm0-2h-1v-1h1v1zm2 6h-1v-1h1v1zm0-2h-1v-1h1v1zm0-2h-1v-1h1v1zm0-2h-1v-1h1v1zm2 6h-1v-3h1v3zm0-4h-1v-1h1v1zm0-2h-1v-1h1v1zm0-2h-5v-2h5v2z" id="iconFg"/></svg>