<svg xmlns="http://www.w3.org/2000/svg" viewBox="0 0 16 16"><defs><style>.icon-canvas-transparent,.icon-vs-out{fill:#f6f6f6;}.icon-canvas-transparent{opacity:0;}.icon-vs-bg{fill:#424242;}.icon-vs-action-red{fill:#a1260d;}</style></defs><title>ClearBookmark_16x</title><g id="canvas"><path class="icon-canvas-transparent" d="M16,16H0V0H16Z"/></g><g id="outline"><path class="icon-vs-out" d="M15,2V15.868L11,13.2,7,15.868V8.414l-.061.061L4.97,6.505,3,8.475.525,6,2.5,4.03.525,2.061,2.586,0h.828L4.97,1.556,6.525,0h.829l2,2Z"/></g><g id="iconBg"><path class="icon-vs-bg" d="M14,3V14l-3-2L8,14V7.414L9.414,6,8,4.586V3.475L8.475,3H14Z"/></g><g id="colorAction"><path class="icon-vs-action-red" d="M6.03,4.03,8,6,6.939,7.06,4.97,5.091,3,7.06,1.939,6l1.97-1.97L1.939,2.06,3,1,4.97,2.97,6.939,1,8,2.06Z"/></g></svg>