<svg xmlns="http://www.w3.org/2000/svg" viewBox="0 0 16 16"><style>.icon-canvas-transparent{opacity:0;fill:#f6f6f6}.icon-vs-out{fill:#f6f6f6}.icon-vs-bg{fill:#424242}.icon-vs-fg{fill:#f0eff1}</style><path class="icon-canvas-transparent" d="M16 16H0V0h16v16z" id="canvas"/><path class="icon-vs-out" d="M16 3v9h-6v2.035C10 14.987 9.299 16 8 16H1.965C1.012 16 0 15.299 0 14V6.965C0 6.012.701 5 2 5h3V3h1.597L8.695.902l.305.31V0h3.031v1.2l.278-.284L14.394 3H16z" id="outline"/><path class="icon-vs-bg" d="M11 7h-1V6h1v1zM5 8H3v1h2V8zm2-2.414V4H6v1h.414L7 5.586zM12 8h-1v1h1V8zm1-1V6h-1v1h1zM6 6l3 3v5.035S9 15 8 15H1.965S1 15 1 14V6.965S1 6 2 6h4zm2 3H6V7H2v7h6V9zm0-2.414L8.414 7H9V6H8v.586zM3 13h4v-1H3v1zm7-5h-.586l.586.586V8zm-7 3h4v-1H3v1zm11-7v6h-4v1h5V4h-1zm-.985-.965l-.707-.707L11 3.627V1.031h-1V3.61L8.697 2.314l-.707.707 2.525 2.525 2.5-2.511z" id="iconBg"/><path class="icon-vs-fg" d="M6 9V7H2v7h6V9H6zM3 8h2v1H3V8zm4 5H3v-1h4v1zm0-2H3v-1h4v1z" id="iconFg"/></svg>