<svg xmlns="http://www.w3.org/2000/svg" viewBox="0 0 16 16"><style>.icon-canvas-transparent{opacity:0;fill:#f6f6f6}.icon-vs-out{fill:#f6f6f6}.icon-vs-fg{fill:#f0eff1}.icon-vs-blue{fill:#1ba1e2}.st0{fill:#00539c}</style><path class="icon-canvas-transparent" d="M16 16H0V0h16v16z" id="canvas"/><path class="icon-vs-out" d="M11 16c-2.851 0-5-1.29-5-3V7.459l-.085.085-.705-.668L5 6.667V9H3.5C1.57 9 0 7.43 0 5.5S1.57 2 3.5 2h.72l-.377-.379L5.41 0h1.034l3.519 3.515-.666.663A8.474 8.474 0 0 1 11 4c2.851 0 5 1.29 5 3v6c0 1.71-2.149 3-5 3z" id="outline"/><path class="icon-vs-blue" d="M11 5c-2.209 0-4 .896-4 2v6c0 1.104 1.791 2 4 2s4-.896 4-2V7c0-1.104-1.791-2-4-2zm0 3.325c-1.999 0-3.325-.798-3.325-1.325S9.001 5.675 11 5.675s3.325.798 3.325 1.325S12.999 8.325 11 8.325z" id="iconBg"/><path class="icon-vs-fg" d="M14.325 7c0 .527-1.326 1.325-3.325 1.325S7.675 7.527 7.675 7 9.001 5.675 11 5.675s3.325.798 3.325 1.325z" id="iconFg"/><path class="st0" d="M1 5.5A2.5 2.5 0 0 1 3.5 3h3.125L5.243 1.611 5.931.9l.012.012.001-.001 2.603 2.603L5.898 6.15l-.009-.009-.691-.691L6.64 4H3.5C2.673 4 2 4.673 2 5.5S2.673 7 3.5 7H4v1h-.5A2.5 2.5 0 0 1 1 5.5z" id="colorAction"/></svg>