<svg xmlns="http://www.w3.org/2000/svg" viewBox="0 0 16 16"><style>.icon-canvas-transparent{opacity:0;fill:#f6f6f6}.icon-vs-out{fill:#f6f6f6}.icon-vs-bg{fill:#424242}.icon-vs-fg{fill:#f0eff1}</style><path class="icon-canvas-transparent" d="M16 16H0V0h16v16z" id="canvas"/><path class="icon-vs-out" d="M9.003.031c-3.166 0-5.848 2.115-6.708 5.03L.896 3.666 0 4.56v2.451L1.993 9H1l-1 .009V16h8v-2.059h.002l.121.015c.258.035.517.067.772.072l.108.003c3.858 0 6.997-3.141 6.997-7 0-3.86-3.139-7-6.997-7z" id="outline"/><path class="icon-vs-fg" d="M13.687 8.714c-.008.023-.013.048-.022.071-.012.042-.022.085-.039.125a5.072 5.072 0 0 1-.995 1.542l-.021.025c-.014.015-.025.033-.04.048a5.05 5.05 0 0 1-1.571 1.091l-.014.008c-.006.002-.01.006-.016.009a5.024 5.024 0 0 1-.828.264c-.042.01-.08.03-.123.038a4.932 4.932 0 0 1-1.016.105l-.016-.001v-.003a4.999 4.999 0 0 1-.827-.077 6.319 6.319 0 0 0-.135-.022l-.021-.003-.004-.001h-.001V8h3.5l.001-1H9V3H8v5H4.64l2.22-2.215-.709-.707-2.139 2.106c-.002-.029-.002-.054-.002-.079v-.006c0-.051.006-.103.007-.155 0-.019.005-.036.005-.055.008-.257.032-.511.077-.758.007-.036.009-.073.017-.109.021-.102.061-.195.088-.294.056-.209.11-.419.195-.621.075-.181.176-.346.271-.515.062-.109.109-.224.18-.329.187-.281.397-.544.634-.782.006-.007.014-.011.021-.017.01-.008.02-.015.029-.024.213-.207.441-.4.688-.567l.001-.001c.052-.035.112-.057.165-.09l.048-.026c.204-.125.409-.248.63-.342.149-.064.312-.098.468-.146.155-.049.304-.112.466-.145.324-.067.66-.102 1.003-.102a4.98 4.98 0 0 1 1.606.289c.085.029.172.051.257.08.017.007.036.009.053.017.102.043.193.104.292.153l.001.001c.225.11.444.237.655.378.196.139.38.294.554.459.098.093.188.195.278.295a5.4 5.4 0 0 1 .268.325c.084.111.169.221.243.339.084.133.154.275.226.417.035.069.079.134.111.205l.002.004c.044.096.078.198.115.297.024.065.04.133.062.2.04.122.084.243.115.37.023.094.047.188.065.284.053.292.09.59.09.897 0 .335-.036.662-.099.98a4.668 4.668 0 0 1-.21.703z" id="iconFg"/><path class="icon-vs-bg" d="M11.501 7H9V3H8v5h3.5l.001-1zM9.003 1.031a6.005 6.005 0 0 0-5.997 6c0 .055-.002.099 0 .153L.896 5.078l-.708.707 3.333 3.326.003-.003.003.003L6.86 5.785l-.709-.707-2.139 2.106c-.004-.056-.004-.095-.004-.153 0-2.763 2.241-5.01 4.995-5.01s4.995 2.248 4.995 5.01c0 2.762-2.241 5.01-4.995 5.01l-.016-.001v-.003a4.999 4.999 0 0 1-.827-.077c-.058-.01-.117-.018-.175-.029v1.005c.063.008.128.009.191.018.27.036.54.077.812.077v-.001l.016.001a6.005 6.005 0 0 0 5.997-6 6.007 6.007 0 0 0-5.998-6zM1 14h6v1H1v-1zm0-1h6v-1H1v1zm1.997-3H1v1h6v-1H2.997z" id="iconBg"/></svg>