<svg xmlns="http://www.w3.org/2000/svg" width="16" height="16"><style type="text/css">.icon-canvas-transparent{opacity:0;fill:#F6F6F6;} .icon-vs-out{fill:#F6F6F6;} .icon-vs-bg{fill:#424242;} .icon-vs-action-green{fill:#388A34;}</style><path class="icon-canvas-transparent" d="M16 16h-16v-16h16v16z" id="canvas"/><path class="icon-vs-out" d="M16 5.221v7.216l-5.818 3.563h-1.362l-5.82-3.562v-4.438h-1v-2h-2v-4h2v-2h4v2h2v.551l1.5-.801 6.5 3.471z" id="outline"/><path class="icon-vs-bg" d="M14.694 5.375l-5.194 2.75-3.5-1.853v-.272h2v-2.581l1.5-.794 5.194 2.75zm-8.694 2.625h-2v3.792l5 3.208v-6l-3-1.625v.625zm4 1v6l5-3.208v-5.5l-5 2.708z" id="iconBg"/><path class="icon-vs-action-green" d="M7 5h-2v2h-2v-2h-2v-2h2v-2h2v2h2v2z" id="colorAction"/></svg>