<svg xmlns="http://www.w3.org/2000/svg" width="16" height="16"><style type="text/css">.icon-canvas-transparent{opacity:0;fill:#F6F6F6;} .icon-vs-out{fill:#F6F6F6;} .icon-vs-bg{fill:#424242;} .icon-vs-fg{fill:#F0EFF1;} .icon-vs-action-green{fill:#388A34;}</style><path class="icon-canvas-transparent" d="M16 16h-16v-16h16v16z" id="canvas"/><path class="icon-vs-out" d="M16 7v9h-11v-1h-5v-14h2v-1h4v1h9v6h1z" id="outline"/><path class="icon-vs-bg" d="M14 8v-6h-6v3h1v2h-3v1h-1v2h-3v-4h-1v8h5v1h9v-7h-1zm-9 5h-3v-2h3v2zm5 1h-3v-2h3v2zm0-3h-3v-2h3v2zm0-6h3v2h-3v-2zm4 9h-3v-2h3v2zm0-3h-3v-2h3v2z" id="iconBg"/><path class="icon-vs-fg" d="M13 7h-3v-2h3v2zm-6 4h3v-2h-3v2zm4-2v2h3v-2h-3zm-4 5h3v-2h-3v2zm4 0h3v-2h-3v2zm-9-4h3v-2h-3v2zm0 3h3v-2h-3v2zm7-8h-1v1h-2v1h3v-2z" id="iconFg"/><path class="icon-vs-action-green" d="M3 5h-2v-2h2v-2h2v2h2v2h-2v2h-2v-2z" id="colorAction"/></svg>