<svg xmlns="http://www.w3.org/2000/svg" width="16" height="16"><style type="text/css">.icon-canvas-transparent{opacity:0;fill:#F6F6F6;} .icon-vs-out{fill:#F6F6F6;} .icon-vs-bg{fill:#424242;} .icon-vs-fg{fill:#F0EFF1;} .icon-vs-action-green{fill:#388A34;}</style><path class="icon-canvas-transparent" d="M16 16h-16v-16h16v16z" id="canvas"/><path class="icon-vs-out" d="M15 1.586v12.828l-1.586 1.586h-7.828l-1.586-1.586v-6.414h-1.982v-2h-2.018v-3.982h2.018v-2.018h11.396l1.586 1.586z" id="outline"/><path class="icon-vs-bg" d="M10 11h-1v-1h1v1zm-1 2h1v-1h-1v1zm3-7h-1v1h1v-1zm-1 7h1v-3h-1v3zm-1-5h-1v1h1v-1zm2 0h-1v1h1v-1zm-5 5h1v-1h-1v1zm1-5h-1v1h1v-1zm5-7h-7v1.018h.396l.018-.018h6.172l.414.414v11.172l-.414.414h-6.172l-.414-.414v-5.586h-1v6l1 1h7l1-1v-12l-1-1zm-5 9h-1v1h1v-1zm2-4h-1v1h1v-1zm-2 0h-1v1h1v-1zm4-3h-4v2h4v-2z" id="iconBg"/><path class="icon-vs-fg" d="M12.586 2h-6.172l-.018.018h1.604v.982h4v2h-4v2h-1v-1h-1v7.586l.414.414h6.172l.414-.414v-11.172l-.414-.414zm-4.586 11h-1v-1h1v1zm0-2h-1v-1h1v1zm0-2h-1v-1h1v1zm2 4h-1v-1h1v1zm0-2h-1v-1h1v1zm0-2h-1v-1h1v1zm0-2h-1v-1h1v1zm2 6h-1v-3h1v3zm0-4h-1v-1h1v1zm0-2h-1v-1h1v1z" id="iconFg"/><path class="icon-vs-action-green" d="M3 7v-2h-2v-2h2v-2h2v2h2v2h-2v2h-2z" id="colorAction"/></svg>