<svg xmlns="http://www.w3.org/2000/svg" width="16" height="16"><style type="text/css">.icon-canvas-transparent{opacity:0;fill:#F6F6F6;} .icon-vs-out{fill:#F6F6F6;} .icon-vs-bg{fill:#424242;} .icon-vs-fg{fill:#F0EFF1;} .icon-vs-action-green{fill:#388A34;}</style><path class="icon-canvas-transparent" d="M16 16h-16v-16h16v16z" id="canvas"/><path class="icon-vs-out" d="M16 2v14h-15v-10h-1v-4h2v-2h4v2h10z" id="outline"/><path class="icon-vs-bg" d="M2 8v7h13v-12h-7v3h2v2h-3v-2h-1v2h-4zm4 6h-3v-2h3v2zm0-3h-3v-2h3v2zm4 3h-3v-2h3v2zm0-3h-3v-2h3v2zm4 3h-3v-2h3v2zm0-3h-3v-2h3v2zm0-3h-3v-2h3v2z" id="iconBg"/><path class="icon-vs-fg" d="M3 9h3v2h-3v-2zm4 5h3v-2h-3v2zm0-3h3v-2h-3v2zm-4 3h3v-2h-3v2zm4-6h3v-2h-3v2zm4 0h3v-2h-3v2zm0 3h3v-2h-3v2zm0 3h3v-2h-3v2z" id="iconFg"/><path class="icon-vs-action-green" d="M7 5h-2v2h-2v-2h-2v-2h2v-2h2v2h2v2z" id="colorAction"/></svg>