<svg xmlns="http://www.w3.org/2000/svg" width="16" height="16"><style type="text/css">.icon-canvas-transparent{opacity:0;fill:#F6F6F6;} .icon-vs-out{fill:#F6F6F6;} .icon-vs-bg{fill:#424242;} .icon-vs-fg{fill:#F0EFF1;}</style><path class="icon-canvas-transparent" d="M16 16h-16v-16h16v16z" id="canvas"/><path class="icon-vs-out" d="M16 5.556v8.444c0 .97-.701 2-2 2h-8c-.97 0-2-.701-2-2v-7h-4v-7h8v2h4.061l3.939 3.556z" id="outline"/><path class="icon-vs-bg" d="M7,6H1V1h6V6zM4.5,3.5L6,2H5L4,3L3,2H2l1.5,1.5L2,5h1l1-1l1,1h1L4.5,3.5zM11.641,3H8v1h3v3h3v7H6V7H5c0,2.349,0,5.436,0,7c0,1,0.965,1,0.965,1s7,0,8,0S15,14,15,14V6L11.641,3z" id="iconBg"/><path class="icon-vs-fg" d="M6 5h-1l-1-1-1 1h-1l1.5-1.5-1.5-1.5h1l1 1 1-1h1l-1.5 1.5 1.5 1.5zm5 2v-3h-3v3h-2v7h8v-7h-3z" id="iconFg"/></svg>