<svg xmlns="http://www.w3.org/2000/svg" viewBox="0 0 16 16"><defs><style>.icon-canvas-transparent,.icon-vs-out{fill:#f6f6f6;}.icon-canvas-transparent{opacity:0;}.icon-vs-bg{fill:#424242;}.icon-vs-action-blue{fill:#00539c;}</style></defs><title>CloudDownload_16x</title><g id="canvas"><path class="icon-canvas-transparent" d="M16,0V16H0V0Z"/></g><g id="outline"><path class="icon-vs-out" d="M16,8.25A3.731,3.731,0,0,1,12.3,12H10.414l.854.854L8.121,16H6.879L3.732,12.854,4.586,12H4.562a4.625,4.625,0,0,1,0-9.25h.1A4.945,4.945,0,0,1,8.43,1a5.025,5.025,0,0,1,4.782,3.614A3.721,3.721,0,0,1,16,8.25Z"/></g><g id="iconBg"><path class="icon-vs-bg" d="M15,8.25A2.73,2.73,0,0,1,12.3,11H9V10h3.3a1.75,1.75,0,0,0,0-3.5h-.859V6.063A3.037,3.037,0,0,0,8.43,3,3.005,3.005,0,0,0,5.622,4.988,2.521,2.521,0,0,0,4.561,4.75a2.625,2.625,0,0,0,0,5.25H6v1H4.561a3.626,3.626,0,0,1,0-7.25,3.461,3.461,0,0,1,.567.047,3.963,3.963,0,0,1,7.255,1.7A2.732,2.732,0,0,1,15,8.25Z"/><polygon class="icon-vs-action-blue" points="8 13.293 8 8 7 8 7 13.293 5.854 12.146 5.146 12.854 7.5 15.207 9.854 12.854 9.146 12.146 8 13.293"/></g></svg>