<svg xmlns="http://www.w3.org/2000/svg" viewBox="0 0 16 16"><style>.icon-canvas-transparent{opacity:0;fill:#f6f6f6}.icon-vs-out{fill:#f6f6f6}.icon-vs-bg{fill:#424242}.icon-vs-action-red{fill:#a1260d}</style><path class="icon-canvas-transparent" d="M16 16H0V0h16v16z" id="canvas"/><path class="icon-vs-out" d="M16 4.906v7.454L10.28 16H8.747L3 12.347V7.475l-1 1-2-2v-.95L1.495 4.03 0 2.535v-.949L1.586 0h.828L3.97 1.556 5.525 0h.828l2.105 2.106 1.083-.568 6.212 3.24.002-.001.245.129z" id="outline"/><path class="icon-vs-bg" d="M15.021 6.319v5.479l-5.023 3.196.009-5.936 5.014-2.739zM6.65 7.764l-.711.711L4 6.535v5.263l5.027 3.196-.004-5.936L6.65 7.764zm2.892-5.098L6.61 4.196 8.414 6 7.391 7.023l2.151 1.122 5.251-2.74-5.251-2.739z" id="iconBg"/><g id="colorAction"><path class="icon-vs-action-red" d="M5.03 4.03L7 6 5.939 7.061l-1.97-1.97L2 7.061.939 6l1.97-1.97-1.97-1.97L2 1l1.97 1.97L5.939 1 7 2.06 5.03 4.03z"/></g></svg>