<svg xmlns="http://www.w3.org/2000/svg" viewBox="0 0 16 16"><defs><style>.icon-canvas-transparent,.icon-vs-out{fill:#f6f6f6;}.icon-canvas-transparent{opacity:0;}.icon-vs-bg{fill:#424242;}.icon-vs-action-red{fill:#a1260d;}</style></defs><title>DeleteAllRows_16x</title><g id="canvas"><path class="icon-canvas-transparent" d="M16,0V16H0V0Z"/></g><g id="outline"><path class="icon-vs-out" d="M16,0V16H3V7.475l-1,1-2-2v-.95L1.5,4.03,0,2.535V1.586L1.586,0Z"/></g><g id="iconBg"><path class="icon-vs-bg" d="M4,15H15V11H4Zm1-3h9v2H5ZM15,1V5H7.414l-.97-.97L6.475,4H14V2H8.354l-1-1ZM8.414,6H15v4H4V6.535l1,1V9h9V7H7.414Z"/></g><g id="colorAction"><path class="icon-vs-action-red" d="M5.03,4.03,7,6,5.94,7.06,3.97,5.091,2,7.06.94,6,2.909,4.03.94,2.06,2,1,3.97,2.97,5.94,1,7,2.06Z"/></g></svg>