<svg xmlns="http://www.w3.org/2000/svg" viewBox="0 0 16 16" enable-background="new 0 0 16 16"><style type="text/css">.icon-canvas-transparent{opacity:0;fill:#F6F6F6;} .icon-vs-out{fill:#F6F6F6;} .icon-vs-bg{fill:#424242;} .icon-vs-fg{fill:#F0EFF1;}</style><path class="icon-canvas-transparent" d="M16 16h-16v-16h16v16z" id="canvas"/><path class="icon-vs-out" d="M16 7v-4.938l-1.625-2.062h-4.376c-.97 0-1.999.701-1.999 2v3h-8v11h12v-1h.5c1.104 0 2.042-.719 2.373-1.713l1.127 1.127v-4.328l-1.232-1.232c.802-.314 1.232-1.099 1.232-1.854z" id="outline"/><path class="icon-vs-bg" d="M13.313 1h-3.35s-.963 0-.963 1v5c0 1 .964 1 .964 1h4c1 0 1.036-1 1.036-1v-3.864l-1.687-2.136zm.687 4v2h-4v-5h3v1h1v2zm-4 4v1h-2v-1h2c-.971 0-2-.701-2-2v-1h-7v9h9v-1h-2v-1h2v-1h-2v-1h2v1h1v-3h-1zm-6 5h-2v-1h2v1zm0-2h-2v-1h2v1zm0-2h-2v-1h2v1zm3 4h-2v-1h2v1zm0-2h-2v-1h2v1zm0-2h-1.999l-.001-1h2v1zm6.5-1l1.5 1.5v1.5l-1-1v1.5c0 .827-.673 1.5-1.5 1.5h-1.5v-1h1.5c.275 0 .5-.225.5-.5v-1.5l-1 1v-1.5l1.5-1.5zm-.51-4.958h-1.996v-1.047h1.996v1.047zm.01.958h-2v1h2v-1z" id="iconBg"/><path class="icon-vs-fg" d="M4 13h-2v1h2v-1zm0-2h-2v1h2v-1zm0-2h-2v1h2v-1zm3 4h-2v1h2v-1zm0-2h-2v1h2v-1zm0-2h-2l.001 1h1.999v-1zm3 4h-2v1h2v-1zm0-2h-2v1h2v-1zm0-2h-2v1h2v-1zm3-6v-1h-3v5h4v-4h-1zm-2.005-.005h1.996v1.047h-1.996v-1.047zm2.005 3.005h-2v-1h2v1z" id="iconFg"/></svg>