<svg xmlns="http://www.w3.org/2000/svg" viewBox="0 0 16 16"><style>.st0{opacity:0}.st0,.st1{fill:#f6f6f6}.st2{fill:#424242}.st3{fill:#f0eff1}</style><g id="outline"><path class="st0" d="M0 0h16v16H0z"/><path class="st1" d="M15.731 4.842c.011-.025.015-.053.024-.078.071-.184.135-.371.175-.568a3.474 3.474 0 0 0 0-1.392 3.526 3.526 0 0 0-.175-.568c-.01-.025-.014-.053-.024-.078a3.501 3.501 0 0 0-.722-1.09L15 1.058V1h-.059a3.488 3.488 0 0 0-1.1-.73c-.04-.017-.085-.023-.126-.039a3.369 3.369 0 0 0-.52-.16A3.378 3.378 0 0 0 12.5 0H11v1H0v14h15V5.942l.009-.01c.304-.314.552-.682.722-1.09z"/></g><g id="icon_x5F_bg"><path class="st2" d="M13 13h-3V9H9v4H6V5h.414L9 2H1v12h13V7h-1v6zm-8 0H2V5h3v8z"/><path class="st2" d="M10 8h2l-1.988-2H12.5a2.5 2.5 0 1 0 0-5H12v1h.5c.827 0 1.5.673 1.5 1.5S13.327 5 12.5 5H9.987L12 3h-2L7.5 5.484 10 8z"/></g><g id="icon_x5F_fg"><path class="st3" d="M12.5 7h.5v-.051c-.165.024-.329.051-.5.051zM6 5v.48L6.414 5zM2 5h3v8H2zM6 13h3V9L6 5.48zM10 9h3v4h-3z"/><path class="st3" d="M6 5v.48L6.414 5z"/></g></svg>